<svg fill="none" height="150" viewBox="0 0 150 150" width="150" xmlns="http://www.w3.org/2000/svg" xmlns:xlink="http://www.w3.org/1999/xlink"><mask id="a" height="134" maskUnits="userSpaceOnUse" width="116" x="17" y="14"><path d="m17.25 14.7787h115.329v132.5533h-115.329z" fill="#fff"/></mask><mask id="b" height="51" maskUnits="userSpaceOnUse" width="54" x="47" y="3"><path d="m47.6744 3.5721h52.9236v49.7653h-52.9236z" fill="#fff"/></mask><path clip-rule="evenodd" d="m120.278 142.761c-14.698-4.639-24.6914-18.273-24.6914-33.688 0-15.4222 10.0054-29.0617 24.6914-33.6871v-17.6305c-5.758 21.0921-22.6538 35.5506-41.8494 35.5506-6.6689 0-13.0737-1.7476-18.8336-4.9234.2452 13.4424 3.7382 26.6304 10.1874 38.4404 14.0123 10.691 31.5136 17.043 50.4956 17.051z" fill="#fff" fill-rule="evenodd"/><path clip-rule="evenodd" d="m59.595 88.3826c5.76 3.1758 12.1648 4.9234 18.8336 4.9234 19.1956 0 36.0914-14.4584 41.8494-35.5506v-25.3966c4.802-2.2372 8.085-7.5016 8.085-13.5202l-.005-.5344s-17.453-.1766-29.5034 9.5936h-2.3941c-3.2504 1.5166-9.0455 4.1672-12.6912 8.401-.4763.5566-.9207 1.1382-1.3166 1.7475-.6758 1.0425-1.4969 1.9828-2.4292 2.8214-1.8066 1.63-4.0321 2.8875-6.4438 3.7868-5.372 3.0014-10.9595 2.9721-15.0794 1.0697-5.4193-1.3145-9.0986-4.6962-7.5766-10.0113.4432-1.5517 1.3304-3.2696 2.749-5.1485.9424-1.2521 1.6359-2.0945 2.1493-2.6666h-.3586c-13.3888-9.7702-32.7865-9.5936-32.7865-9.5936l-.0117.5344c0 7.2866 5.3523 13.4675 12.5639 14.5095 1.8418.7993 3.6362 1.681 5.3779 2.6431-2.2962 7.474-3.5282 15.2284-3.6655 23.0414 3.9396 13.1913 12.2405 23.606 22.6535 29.35z" fill="#fff" fill-rule="evenodd"/><path clip-rule="evenodd" d="m67.8235 126.823c-6.4496-11.81-9.9426-24.998-10.1878-38.4404-10.4126-5.7441-18.7136-16.1587-22.6535-29.35-.0076.4838-.0117.9679-.0117 1.4517 0 27.0563 12.8853 51.1027 32.853 66.3387z" fill="#2cc28c" fill-rule="evenodd"/><path d="m53.5037 28.2884h43.3911" stroke="#147853" stroke-linecap="round" stroke-linejoin="round"/><g mask="url(#a)"><path clip-rule="evenodd" d="m47.7893 46.6059c-1.681.7972-3.111 1.9844-4.1848 3.4303-1.3969 1.8789-2.2062 4.2124-2.2062 6.6965 0 3.0954 1.2558 5.8988 3.2817 7.9247 2.0259 2.0258 4.8297 3.2817 7.923 3.2817 2.0159 0 3.9396-.5269 5.5934-1.4772 1.1835-.6797 2.2452-1.5811 3.1206-2.6645-2.4016-4.5568-5.3678-8.773-8.8102-12.5502-1.4869-1.6303-3.062-3.18-4.7175-4.6413zm-7.5506-3.0993c.5465-.5113 1.1244-.9897 1.7337-1.4324-.4017-.2741-.8051-.5444-1.2127-.8089-.1841.7445-.3582 1.491-.521 2.2413zm74.6243 96.8364v-66.1288c-2.859 4.543-6.297 8.5281-10.172 11.8295-7.9795 6.7982-17.7932 10.7185-28.2217 10.7185-5.2272 0-10.3088-.9893-15.0895-2.8352.4059 4.5334 1.1973 9.028 2.3648 13.432 1.5752 5.942 3.832 11.702 6.7354 17.141 12.474 9.343 27.7711 15.127 44.383 15.843zm1.794-111.0148c.134-.0728.272-.1373.416-.1942 1.309-.6524 2.466-1.622 3.399-2.8172.962-1.2362 1.685-2.7172 2.094-4.3492-5.48.5172-15.751 2.3234-23.4981 8.6026-1.4751 1.199-3.6457.9755-4.8447-.4996-1.1993-1.4752-.9754-3.6458.4997-4.8448 13.0341-10.5678 31.6221-10.3778 31.6751-10.3778 1.909 0 3.456 1.548 3.456 3.4562l-.008.2272.014.3072c0 4.4221-1.483 8.534-3.961 11.7178-1.168 1.4969-2.559 2.79-4.124 3.8107v22.7593c.045.3193.046.6487 0 .9797v82.2449c.597-.025 1.185-.057 1.763-.094 1.773-.113 3.493-.282 5.152-.497 1.885-.245 3.615 1.085 3.86 2.97.245 1.884-1.086 3.614-2.97 3.859-1.912.249-3.789.437-5.611.553-1.93.125-3.803.19-5.607.19-23.9802 0-45.6933-9.722-61.4097-25.438s-25.4376-37.4296-25.4376-61.4097c0-4.312.3251-8.6282.9658-12.9029l.0197-.1139c.4934-3.2658 1.1793-6.5157 2.0551-9.7325-.7348-.3628-1.4772-.7114-2.2296-1.0445-4.2631-.7248-7.9758-2.9151-10.6482-6.0027-2.7699-3.1992-4.4275-7.3606-4.4275-11.8492 0-.1113.008-.2214.0176-.331l-.0059-.2034c0-.2.0159-.3959.0511-.5859l.0037-.0255.0101-.0607.0054-.0238c.2942-1.6338 1.7401-2.862 3.4541-2.8289.2273.0037.4507.0314.6663.0766 3.7755.0803 21.3311.962 34.0754 10.2619 1.5341 1.1169 1.8731 3.27.7566 4.8037-1.1169 1.5341-3.27 1.8731-4.8041.7562-8.922-6.512-20.8394-8.2696-26.8873-8.7437.4524 1.5852 1.2442 3.0327 2.2958 4.2475 1.7087 1.9732 4.1107 3.3541 6.8672 3.7521.4055.0565.7855.1842 1.1283.3662 1.8044.7913 3.5637 1.6576 5.2761 2.5937.0996.0494.1976.1021.2921.1607l.0155.0101c6.4613 3.5771 12.2426 8.1636 17.1405 13.5394 4.4337 4.8627 8.1561 10.3816 11.0202 16.3922 4.2379-8.6654 9.9054-15.9649 16.5215-21.4939 8.6612-7.2388 18.9668-11.4571 29.8498-11.7705.157-.0038.312.0021.464.0176.408-.1113.808-.2524 1.193-.421zm-18.7545 11.8844c5.1035-2.6586 10.5905-4.2342 16.2545-4.5514.228.0648.465.1059.706.1234v20.5222c-2.733 9.6723-7.951 17.7891-14.655 23.5017-6.7313 5.7345-14.9892 9.0417-23.7387 9.0417-8.252 0-16.0964-2.9486-22.6301-8.1323-2.8841-2.2882-5.5172-5.0075-7.8247-8.1034 2.043.7976 4.2647 1.2366 6.5885 1.2366 3.2014 0 6.3065-.8642 9.022-2.4255.9617-.5528 1.8727-1.1931 2.721-1.9162.3272.862.6369 1.7342.9248 2.6155l.0117.0293.0176.0548.0096.0234c.067.1867.1473.3645.2432.5311l.0414.0686.0017.0059.0414.0648.0038.0076.1803.2569.0055.0075.01.0122.0021.0037.0937.1134.0101.0139.0452.0489.0113.0138.0452.0469.0117.0138.0452.0469.0138.0121.0469.0469.0117.0117.0489.0452.0118.0117.051.0448.0117.01.0532.0452.0117.0076.0527.0452.0117.0079c.1708.1368.3587.2528.5583.3545l.0079.0058c.1294.0666.2624.1256.4035.1745 1.7948.6386 3.7734-.2979 4.412-2.0924.6896-1.9338 1.4517-3.8085 2.2807-5.6189 1.4847 1.9765 3.352 3.6127 5.4603 4.8255 2.7151 1.5613 5.8202 2.4255 9.0215 2.4255 5 0 9.5313-2.03 12.8092-5.3076 3.278-3.2775 5.307-7.8092 5.307-12.8108 0-3.9827-1.314-7.7444-3.585-10.7989-1.399-1.8806-3.1603-3.4909-5.1995-4.7212zm-20.3791 19.8576c.5487.2921 1.0245.7348 1.3597 1.3127 1.0047 1.7263 2.4292 3.1211 4.0948 4.079 1.6534.9503 3.5771 1.4772 5.5929 1.4772 3.0938 0 5.8972-1.2559 7.9231-3.2817 2.0254-2.0259 3.2813-4.8293 3.2813-7.9247 0-2.4841-.8089-4.8176-2.2058-6.6965-1.3969-1.8769-3.3935-3.3244-5.7637-4.0375-.2884-.0862-.5566-.2059-.8014-.3549-.4821.3725-.9562.7562-1.4262 1.1483-4.5886 3.8337-8.6713 8.6495-12.0547 14.2781zm-19.2567 52.1238c-.4289-1.352-.8286-2.712-1.191-4.08-1.6124-6.079-2.5665-12.3539-2.8251-18.711-1.622-.9897-3.1913-2.0869-4.702-3.2859-3.46-2.7448-6.6061-6.024-9.3375-9.7585 2.9092 13.5357 9.2471 25.8004 18.0556 35.8354z" fill="#147853" fill-rule="evenodd"/></g><path clip-rule="evenodd" d="m79.6439 21.6525c-.1318 1.7111-.1724 3.3457-.2214 4.7806l.768-.0305c8.5486-.4063 14.1043-3.8676 16.0423-5.2866.8031 3.3834.4331 5.1866.7407 5.6783.1134.182-.3427.5089-1.1709.9935-2.6971 1.5726-9.3417 4.7878-13.1553 9.9401-26.7943 2.3711-30.4367-3.5115-30.4367-3.5115.8792-1.3617 2.0016-2.8193 3.3989-4.3727 0 0-.0218-2.3677.5097-5.5163 0 0 4.4773.8717 10.346 1.5027-.0778.593-.1448 1.2023-.2005 1.8321.0574-.6298.1285-1.2387.2097-1.8304.249-1.8212.5997-3.4734 1.0311-4.9724-.0125-.0021-.0246-.0033-.0372-.0054-4.5196-.6696-8.2721-1.5655-9.9389-1.9915.7851-2.1519 1.889-4.2815 3.4441-6.0265.0473-.0528.0963-.1055.1452-.1582.7914.2142 5.0398.7729 9.4907 1.3475 4.8799-7.22799 12.1237-7.70589 13.611-7.64437.0247.00209.0473.00293.0682.00376.0628.01256.1247.0272.1875.03976.7214.1586 1.4195.36073 2.0861.60847-1.2538.7587-2.2803 1.68646-3.1227 2.73517-1.3174 1.63961-2.1832 3.56961-2.7607 5.59421l1.4722-.0477c4.4656-.2218 7.782-1.7982 10.1377-3.5307.97 1.6685 1.7274 3.1859 2.3221 4.5576-1.6082 1.4752-6.2094 4.8962-14.6396 5.2971zm-29.799 17.902c-2.5146 12.0982 20.169 12.6577 29.4027 3.0043-21.2591 1.8204-27.7045-1.612-29.4027-3.0043z" fill="#fff" fill-rule="evenodd"/><g clip-rule="evenodd" fill-rule="evenodd" mask="url(#b)"><path d="m84.2885 6.38469c-8.1193-1.69024-19.152 1.99153-23.1698 6.29311 1.4968.4042 15.3481 2.0455 19.56 2.6845.4913-.0079.9835-.0239 1.4722-.0477 4.4656-.2218 7.7821-1.7982 10.1377-3.5307-.0553-.0954-.1105-.1908-.1674-.2858-1.2705-2.15561-3.2256-3.59517-5.5591-4.46519-1.2537.7587-2.2803 1.68647-3.1227 2.73517.9031-2.90256-.0782-3.43947.8491-3.38339zm-34.4437 33.16981c1.6982 1.3923 8.1436 4.8247 29.4027 3.0043.8671-.9073 1.6175-1.9049 2.215-2.9917.3507-.639.75-1.2517 1.1848-1.8392-26.7944 2.3711-30.4368-3.5115-30.4368-3.5115-1.2772 1.9786-2.0359 3.7567-2.3657 5.3381zm7.6846-20.692c-.6859 1.8831-1.1266 3.7851-1.4103 5.4649 0 0 4.4773.8717 10.346 1.5027 3.9998.4319 8.6458.7495 12.9574.603.2578-.0075.5139-.0192.7679-.0305 8.5486-.4063 14.1044-3.8676 16.0423-5.2866-.3176-1.3379-.821-2.9235-1.622-4.7745-1.6082 1.4752-6.2094 4.8962-14.6396 5.2971-.1096.0055-.2172.0101-.3273.0138-4.0805.1637-8.3963-.2389-12.1756-.7984-4.5195-.6696-8.272-1.5655-9.9388-1.9915z" fill="#2cc28c"/><path d="m77.9013 36.5808c-8.5458-.0586-17.1346-1.8965-21.0156-2.8465-2.3159 3.1679-2.731 5.9596-1.9083 8.062.5838 1.4927 1.8104 2.723 3.409 3.534 1.771.8973 3.9868 1.2931 6.3533 1.0207 4.4765-.5151 9.4258-3.4227 13.1616-9.7702zm10.0016-24.0562c-1.9928 1.7848-2.9917 4.0592-3.3717 6.3847-.5448 3.3403.0511 6.7668.8504 9.2726 2.2803-1.0303 4.453-1.8865 6.2282-2.5841l1.9434-.7716c.0703-1.5049-.1963-4.3731-3.5249-10.0213l.0059-.0042-.0059-.0092c-.4779-.8131-1.1144-1.5049-1.8609-2.0732zm-22.3325 15.9729c1.1169-8.9299 4.7983-14.2312 8.8416-17.364-2.2175.5248-4.3061 1.3379-6.0324 2.3548-1.2889.7583-2.3426 1.6204-3.0344 2.5293-3.023 3.9672-4.7116 8.4399-5.5678 11.3198 1.5379.3549 3.5324.7742 5.793 1.1601zm12.4878-17.9477c-4.7355 2.5351-9.7175 7.7129-11.0148 18.1908 3.5621.552 7.6469.9792 11.6358.9462-.9817-3.3604-1.6358-7.6879-.9503-11.8823.4176-2.551 1.2968-5.0665 2.8368-7.3313-.5741-.0155-1.1558-.008-1.7417.0234zm-25.6372 17.7045c.6247-2.7272 2.6581-10.1384 7.4464-16.4215 1.2361-1.622 2.9758-3.07579 5.0292-4.28478 3.7538-2.21165 8.7182-3.68302 13.5751-3.93578 3.5712-.18832 7.1446.27619 10.2522 1.56343.1917.06445.3779.14479.5583.24314 1.0952.49548 2.1238 1.1006 3.07 1.82163 1.4203 1.08344 2.6506 2.42969 3.6106 4.05756l.0058-.0038c4.8494 8.2265 4.6084 12.5678 4.4124 14.6388.609 1.6572-.079 3.0386-1.8868 4.1689-.1038.0645-.2097.1235-.3177.1741-.9286.5156-2.3137 1.0642-4.0554 1.748-2.2707.8913-5.2193 2.053-7.952 3.3951-4.9702 11.7392-13.1971 16.9329-20.6456 17.7891-3.7362.431-7.3079-.2352-10.2406-1.7225-3.1013-1.5709-5.513-4.0646-6.7316-7.1781-1.7806-4.5451-1.0207-10.2465 3.8697-16.0533z" fill="#147853"/></g><path d="m73.6232 32.9576s7.9398.8232 22.1793-5.1698" stroke="#147853" stroke-linecap="round" stroke-linejoin="round"/><g clip-rule="evenodd" fill-rule="evenodd"><path d="m78.1382 41.7231c10.752-4.1505 22.8338 1.2014 26.9848 11.9534 4.15 10.7515-1.201 22.8338-11.9535 26.9843-10.7519 4.1505-22.8338-1.2014-26.9843-11.9534-4.1509-10.7515 1.2011-22.8338 11.953-26.9843z" fill="#fff"/><path d="m86.8086 80.562 2.4489 6.3412 8.8504-3.4164 1.6472-.6353-2.4486-6.3416z" fill="#2cc28c"/><path d="m91.6567 47.6441c-3.4679-1.5358-7.5234-1.7492-11.3336-.2799l-.0059.0017c-3.8127 1.4713-6.6747 4.3555-8.2088 7.8209-1.5204 3.4307-1.7455 7.4389-.3311 11.2144.039.082.0724.1665.0975.2544 1.4873 3.7479 4.3455 6.5651 7.7741 8.0817 3.4307 1.5203 7.4389 1.7458 11.2144.3293.0803-.0372.1628-.0707.2486-.0963 3.7521-1.4851 6.5709-4.3433 8.0896-7.7757 1.5295-3.4558 1.7455-7.4995.2938-11.2985l-.0176-.0469c-1.4714-3.8106-4.3551-6.6709-7.821-8.2051zm-12.5367-3.5085c4.6924-1.7969 9.6722-1.5341 13.9278.3503 4.2709 1.8928 7.8272 5.4172 9.6432 10.1213l.004.0096c1.814 4.7037 1.555 9.7016-.335 13.9688-1.051 2.3686-2.6003 4.5179-4.5772 6.2713.4997.1427.9286.5114 1.1303 1.0324l2.4299 6.2969.017.0447c.343.8855-.1 1.8849-.985 2.2276l-10.4524 4.0341-.0448.0176c-.8855.3427-1.8848-.1-2.2276-.9855l-2.4292-6.2968-.0176-.0452c-.2335-.6014-.1042-1.2576.282-1.7221-2.5117-.0217-4.9723-.5658-7.2275-1.5651-4.2727-1.8928-7.8285-5.4189-9.6447-10.123l-.0196-.0531c-1.7928-4.692-1.5283-9.6702.3565-13.9232 1.8928-4.2731 5.4189-7.8272 10.1247-9.643zm11.124 40.5405 7.2823-2.8113-1.2069-3.1269-7.2819 2.8113z" fill="#147853"/><path d="m84.5493 53.4668c4.1204.1946 7.3012 3.6906 7.1066 7.8109-.1942 4.1204-3.6901 7.3012-7.8109 7.1066-4.1199-.1941-7.3008-3.6905-7.1066-7.8109.1946-4.1199 3.6906-7.3007 7.8109-7.1066z" fill="#2cc28c"/><path d="m84.3709 57.2403c2.0359.0958 3.6077 1.8233 3.5115 3.8592-.0958 2.0359-1.8233 3.6077-3.8592 3.5114-2.0359-.0958-3.6073-1.8233-3.5115-3.8592.0963-2.0359 1.8238-3.6077 3.8592-3.5114z" fill="#147853"/><path d="m86.3002 57.3315c.97.0456 1.7195.8687 1.6735 1.8392-.0456.9704-.8692 1.7195-1.8392 1.6735-.9705-.0456-1.7195-.8692-1.6735-1.8392.0456-.9705.8688-1.7196 1.8392-1.6735z" fill="#fff"/><path d="m90.903 86.268 10.273 26.612 7.205-2.781-10.2731-26.6122z" fill="#fff"/><path d="m96.629 86.8275-2.3844.9207 8.4114 21.7918 2.386-.919zm-6.6554-2.9683 7.2041-2.7824c1.3299-.5131 2.8263.1494 3.3403 1.4797l10.274 26.6125c.513 1.331-.149 2.827-1.48 3.341l-7.205 2.779c-1.33.514-2.8273-.148-3.3408-1.478l-10.2715-26.6119c-.5135-1.3299.1489-2.8268 1.4789-3.3399z" fill="#147853"/><path d="m75.1528 65.6837.0504.1296zm6.7897-14.9913-.1344.0504h.006zm8.4269-.139c-2.7096-1.1989-5.8796-1.3693-8.8613-.2352l-.1075.0414c-2.9645 1.1617-5.1879 3.4148-6.3851 6.1165-1.199 2.7092-1.3714 5.8775-.2369 8.8592l.041.108c1.1638 2.9678 3.4169 5.1895 6.1186 6.3864 2.723 1.2052 5.9106 1.3755 8.906.2176 2.9959-1.158 5.2427-3.4207 6.448-6.1416 1.2048-2.7235 1.373-5.9094.2192-8.9044-1.1579-2.9959-3.4206-5.2431-6.142-6.4479zm-9.4019-1.6204c3.3696-1.2847 6.945-1.0947 10.0016.257 3.07 1.3596 5.6248 3.8948 6.9292 7.274 1.3031 3.3817 1.1152 6.9731-.2427 10.0409-1.3597 3.07-3.8948 5.6248-7.2745 6.9296-3.3817 1.3065-6.9743 1.1165-10.0426-.241-3.07-1.3597-5.6264-3.8927-6.9296-7.2744l-.0155-.0431c-1.2851-3.3696-1.093-6.9434.2587-9.9996 1.3596-3.0699 3.8947-5.6247 7.2723-6.9275z" fill="#ccc"/><path d="m93.6273 109.073c0 15.415 6.5377 26.629 21.2357 31.27v-63.6661c-14.686 4.6238-21.2357 16.9739-21.2357 32.3961z" fill="#2cc28c"/><path d="m119.357 139.468c1.818.572 2.827 2.513 2.255 4.331s-2.514 2.827-4.332 2.255c-8.058-2.542-14.836-7.562-19.5989-14.058-4.7627-6.499-7.5096-14.473-7.5096-22.923 0-8.453 2.7507-16.4291 7.5171-22.9314 4.7634-6.4948 11.5534-11.514 19.6294-14.0571 1.818-.5662 3.753.4486 4.319 2.2669.567 1.8183-.448 3.7538-2.266 4.3195-6.632 2.0891-12.21 6.2107-16.122 11.5454-3.9107 5.3327-6.1655 11.8927-6.1655 18.8567 0 6.963 2.2531 13.52 6.1575 18.847 3.906 5.331 9.48 9.453 16.116 11.548z" fill="#147853"/><path d="m49.2075 60.2964c-.5385.7817-1.6124.9776-2.3941.439-.7817-.539-.9775-1.6124-.4385-2.3941.5896-.8546 1.3303-1.5363 2.1551-2.0066l-.0021-.0017c.8638-.4938 1.8221-.76 2.8055-.76 1.019 0 2.0062.2859 2.8934.811l.1138.0741c.7976.498 1.5124 1.201 2.0727 2.0673.5177.7972.2921 1.8652-.5051 2.3824-.7976.5168-1.8651.2917-2.3824-.5055-.2783-.4294-.6172-.7738-.9817-1.009l-.0724-.0393c-.3545-.2097-.7445-.3252-1.1383-.3252-.38 0-.7562.1059-1.0931.2976l-.002-.0017-.0042.0017c-.38.2155-.7345.5465-1.0266.97z" fill="#147853"/></g></svg>